<svg width="288" height="288" viewBox="0 0 288 288" fill="none" xmlns="http://www.w3.org/2000/svg">
<g clip-path="url(#clip0_17128_231)">
<rect width="288" height="288" fill="#5E5CE6"/>
<rect width="288" height="288" fill="url(#paint0_linear_17128_231)"/>
<rect x="72" y="48" width="144" height="192" rx="2" fill="white"/>
<path d="M192 232.8L204.471 240H179.529L192 232.8Z" fill="#5E5CE6"/>
<path d="M192 232.8L204.471 240H179.529L192 232.8Z" fill="url(#paint1_linear_17128_231)"/>
<path d="M168 232.8L180.471 240H155.529L168 232.8Z" fill="#5E5CE6"/>
<path d="M168 232.8L180.471 240H155.529L168 232.8Z" fill="url(#paint2_linear_17128_231)"/>
<path d="M144 232.8L156.471 240H131.529L144 232.8Z" fill="#5E5CE6"/>
<path d="M144 232.8L156.471 240H131.529L144 232.8Z" fill="url(#paint3_linear_17128_231)"/>
<path d="M120 232.8L132.471 240H107.529L120 232.8Z" fill="#5E5CE6"/>
<path d="M120 232.8L132.471 240H107.529L120 232.8Z" fill="url(#paint4_linear_17128_231)"/>
<path d="M96 232.8L108.471 240H83.5292L96 232.8Z" fill="#5E5CE6"/>
<path d="M96 232.8L108.471 240H83.5292L96 232.8Z" fill="url(#paint5_linear_17128_231)"/>
<rect x="100.8" y="139.2" width="57.6" height="4.8" rx="2" fill="#C7C7CC"/>
<rect x="100.8" y="124.8" width="86.4" height="4.8" rx="2" fill="#C7C7CC"/>
<rect x="100.8" y="110.4" width="86.4" height="4.8" rx="2" fill="#C7C7CC"/>
<rect x="100.8" y="96" width="86.4" height="4.8" rx="2" fill="#C7C7CC"/>
</g>
<defs>
<linearGradient id="paint0_linear_17128_231" x1="144" y1="0" x2="144" y2="288" gradientUnits="userSpaceOnUse">
<stop stop-color="#1B65F0" stop-opacity="0.6"/>
<stop offset="1" stop-color="white" stop-opacity="0"/>
</linearGradient>
<linearGradient id="paint1_linear_17128_231" x1="192" y1="0.000220805" x2="192" y2="288" gradientUnits="userSpaceOnUse">
<stop stop-color="#1B65F0" stop-opacity="0.6"/>
<stop offset="1" stop-color="white" stop-opacity="0"/>
</linearGradient>
<linearGradient id="paint2_linear_17128_231" x1="168" y1="0.000220805" x2="168" y2="288" gradientUnits="userSpaceOnUse">
<stop stop-color="#1B65F0" stop-opacity="0.6"/>
<stop offset="1" stop-color="white" stop-opacity="0"/>
</linearGradient>
<linearGradient id="paint3_linear_17128_231" x1="144" y1="0.000220805" x2="144" y2="288" gradientUnits="userSpaceOnUse">
<stop stop-color="#1B65F0" stop-opacity="0.6"/>
<stop offset="1" stop-color="white" stop-opacity="0"/>
</linearGradient>
<linearGradient id="paint4_linear_17128_231" x1="120" y1="0.000220805" x2="120" y2="288" gradientUnits="userSpaceOnUse">
<stop stop-color="#1B65F0" stop-opacity="0.6"/>
<stop offset="1" stop-color="white" stop-opacity="0"/>
</linearGradient>
<linearGradient id="paint5_linear_17128_231" x1="96" y1="0.000220805" x2="96" y2="288" gradientUnits="userSpaceOnUse">
<stop stop-color="#1B65F0" stop-opacity="0.6"/>
<stop offset="1" stop-color="white" stop-opacity="0"/>
</linearGradient>
<clipPath id="clip0_17128_231">
<rect width="288" height="288" rx="46" fill="white"/>
</clipPath>
</defs>
</svg>
