<svg width="1024" height="1024" viewBox="0 0 1024 1024" fill="none" xmlns="http://www.w3.org/2000/svg">
<g clip-path="url(#clip0_16017_405)">
<rect width="1024" height="1024" fill="#5E5CE6"/>
<rect width="1024" height="1024" fill="url(#paint0_linear_16017_405)"/>
<path fill-rule="evenodd" clip-rule="evenodd" d="M296 170.667C273.909 170.667 256 188.575 256 210.667V813.333C256 835.425 273.909 853.333 296 853.333H297.321L341.2 828L383.867 852.634L426.533 828L469.2 852.634L511.867 828L554.533 852.634L597.2 828L639.867 852.634L682.533 828L726.412 853.333H728C750.091 853.333 768 835.425 768 813.333V210.667C768 188.575 750.091 170.667 728 170.667H296Z" fill="white"/>
<rect x="358.4" y="494.933" width="204.8" height="17.0667" rx="8.53333" fill="#C7C7CC"/>
<rect x="358.4" y="443.733" width="307.2" height="17.0667" rx="8.53333" fill="#C7C7CC"/>
<rect x="358.4" y="392.533" width="307.2" height="17.0667" rx="8.53333" fill="#C7C7CC"/>
<rect x="358.4" y="341.333" width="307.2" height="17.0667" rx="8.53333" fill="#C7C7CC"/>
</g>
<defs>
<linearGradient id="paint0_linear_16017_405" x1="512" y1="1024" x2="512" y2="0" gradientUnits="userSpaceOnUse">
<stop stop-color="white" stop-opacity="0"/>
<stop offset="1" stop-color="#1B65F0" stop-opacity="0.6"/>
</linearGradient>
<clipPath id="clip0_16017_405">
<rect width="1024" height="1024" rx="180" fill="white"/>
</clipPath>
</defs>
</svg>
